# xmcd
#
# Track frame offsets:
#	150
#	21699
#	41332
#	66195
#	88465
#	111886
#	131726
#	147971
#	169829
#	191173
#	210298
#
# Disc length: 3033 seconds
#
# Revision: 5
# Processed by: cddbd v1.5.1PL0 Copyright (c) Steve Scherf et al.
# Submitted via: audiograbber 1.83.01
#
DISCID=a70bd70b
DTITLE=Miguel Bosé - Sereno
DYEAR=2001
DGENRE=Pop
TTITLE0=Puede que
TTITLE1=Gulliver
TTITLE2=Mirarte
TTITLE3=El hijo del capitán trueno
TTITLE4=Te digo amor
TTITLE5=Tic Tac
TTITLE6=Mientras respire
TTITLE7=Morenamía
TTITLE8=La noche me gusta
TTITLE9=Millones de km. de aqui
TTITLE10=Sereno
EXTD=YEAR: 2001 ID3G: 13
EXTT0=
EXTT1=
EXTT2=
EXTT3=
EXTT4=
EXTT5=
EXTT6=
EXTT7=
EXTT8=
EXTT9=
EXTT10=
PLAYORDER=
